G75*
G70*
%OFA0B0*%
%FSLAX24Y24*%
%IPPOS*%
%LPD*%
%AMOC8*
5,1,8,0,0,1.08239X$1,22.5*
%
%ADD10C,0.0030*%
%ADD11C,0.0520*%
%ADD12R,0.0160X0.0780*%
%ADD13R,0.0591X0.0591*%
%ADD14R,0.0276X0.0354*%
%ADD15C,0.0100*%
%ADD16C,0.0160*%
D10*
X001445Y002345D02*
X001445Y002592D01*
X001445Y002468D02*
X001815Y002468D01*
X002045Y002407D02*
X002106Y002345D01*
X002353Y002345D01*
X002415Y002407D01*
X002415Y002530D01*
X002353Y002592D01*
X002106Y002592D01*
X002045Y002530D01*
X002045Y002407D01*
X002168Y002713D02*
X002045Y002837D01*
X002168Y002960D01*
X002415Y002960D01*
X002230Y002960D02*
X002230Y002713D01*
X002168Y002713D02*
X002415Y002713D01*
X001815Y002775D02*
X001753Y002713D01*
X001630Y002713D01*
X001568Y002775D01*
X001568Y002898D01*
X001630Y002960D01*
X001753Y002960D01*
X001815Y002898D01*
X001815Y002775D01*
X001815Y003082D02*
X001568Y003082D01*
X001568Y003143D01*
X001630Y003205D01*
X001568Y003267D01*
X001630Y003329D01*
X001815Y003329D01*
X001815Y003205D02*
X001630Y003205D01*
X002045Y003082D02*
X002168Y003205D01*
X002045Y003329D01*
X002415Y003329D01*
X002415Y003450D02*
X002045Y003450D01*
X002230Y003512D02*
X002415Y003697D01*
X002292Y003450D02*
X002045Y003697D01*
X001815Y003818D02*
X001445Y003818D01*
X001568Y003942D01*
X001445Y004065D01*
X001815Y004065D01*
X001753Y004187D02*
X001692Y004248D01*
X001692Y004433D01*
X001630Y004433D02*
X001815Y004433D01*
X001815Y004248D01*
X001753Y004187D01*
X001568Y004248D02*
X001568Y004372D01*
X001630Y004433D01*
X001568Y004555D02*
X001568Y004617D01*
X001630Y004678D01*
X001568Y004740D01*
X001630Y004802D01*
X001815Y004802D01*
X001815Y004923D02*
X001815Y005108D01*
X001753Y005170D01*
X001630Y005170D01*
X001568Y005108D01*
X001568Y004923D01*
X001938Y004923D01*
X001815Y004678D02*
X001630Y004678D01*
X001568Y004555D02*
X001815Y004555D01*
X001753Y005292D02*
X001692Y005353D01*
X001692Y005538D01*
X001630Y005538D02*
X001815Y005538D01*
X001815Y005353D01*
X001753Y005292D01*
X001568Y005353D02*
X001568Y005477D01*
X001630Y005538D01*
X001630Y005660D02*
X001568Y005722D01*
X001568Y005845D01*
X001630Y005907D01*
X001692Y005907D01*
X001692Y005660D01*
X001753Y005660D02*
X001630Y005660D01*
X001753Y005660D02*
X001815Y005722D01*
X001815Y005845D01*
X001753Y006028D02*
X001568Y006028D01*
X001753Y006028D02*
X001815Y006090D01*
X001815Y006275D01*
X001877Y006275D02*
X001938Y006213D01*
X001938Y006152D01*
X001877Y006275D02*
X001568Y006275D01*
X002045Y003082D02*
X002415Y003082D01*
D11*
X002780Y001190D02*
X002780Y000670D01*
X003780Y000670D02*
X003780Y001190D01*
X004780Y001190D02*
X004780Y000670D01*
X005780Y000670D02*
X005780Y001190D01*
X006780Y001190D02*
X006780Y000670D01*
X007780Y000670D02*
X007780Y001190D01*
X008780Y001190D02*
X008780Y000670D01*
X009780Y000670D02*
X009780Y001190D01*
X010780Y001190D02*
X010780Y000670D01*
X011780Y000670D02*
X011780Y001190D01*
X012780Y001190D02*
X012780Y000670D01*
X001780Y000670D02*
X001780Y001190D01*
X001780Y006670D02*
X001780Y007190D01*
X002780Y007190D02*
X002780Y006670D01*
X003780Y006670D02*
X003780Y007190D01*
X004780Y007190D02*
X004780Y006670D01*
X005780Y006670D02*
X005780Y007190D01*
X006780Y007190D02*
X006780Y006670D01*
X007780Y006670D02*
X007780Y007190D01*
X008780Y007190D02*
X008780Y006670D01*
X009780Y006670D02*
X009780Y007190D01*
X010780Y007190D02*
X010780Y006670D01*
X011780Y006670D02*
X011780Y007190D01*
X012780Y007190D02*
X012780Y006670D01*
D12*
X008783Y005060D03*
X008527Y005060D03*
X008270Y005060D03*
X008014Y005060D03*
X007758Y005060D03*
X007502Y005060D03*
X007246Y005060D03*
X006990Y005060D03*
X006734Y005060D03*
X006478Y005060D03*
X006223Y005060D03*
X005967Y005060D03*
X005967Y002800D03*
X006223Y002800D03*
X006478Y002800D03*
X006734Y002800D03*
X006990Y002800D03*
X007246Y002800D03*
X007502Y002800D03*
X007758Y002800D03*
X008014Y002800D03*
X008270Y002800D03*
X008526Y002800D03*
X008782Y002800D03*
D13*
X012180Y003241D03*
X012180Y004619D03*
D14*
X010936Y004530D03*
X010424Y004530D03*
D15*
X007330Y004530D01*
X007230Y004630D01*
X007230Y005076D01*
X007246Y005060D01*
X007230Y005076D02*
X007230Y005930D01*
X006780Y006380D01*
X006780Y006930D01*
X005780Y006930D02*
X005780Y006330D01*
X005980Y006130D01*
X006680Y006130D01*
X006980Y005830D01*
X006980Y005070D01*
X006990Y005060D01*
X006734Y005060D02*
X006730Y005064D01*
X006730Y005780D01*
X006530Y005980D01*
X005130Y005980D01*
X004780Y006330D01*
X004780Y006930D01*
X003780Y006930D02*
X003780Y006330D01*
X004280Y005830D01*
X006280Y005830D01*
X006480Y005630D01*
X006480Y005062D01*
X006478Y005060D01*
X006230Y005067D02*
X006223Y005060D01*
X006230Y005067D02*
X006230Y005580D01*
X006130Y005680D01*
X003430Y005680D01*
X002780Y006330D01*
X002780Y006930D01*
X001780Y006930D02*
X001780Y006330D01*
X003030Y005080D01*
X005947Y005080D01*
X005967Y005060D01*
X007480Y005082D02*
X007480Y005930D01*
X007780Y006230D01*
X007780Y006930D01*
X008780Y006930D02*
X008780Y006330D01*
X008580Y006130D01*
X007980Y006130D01*
X007730Y005880D01*
X007730Y005088D01*
X007758Y005060D01*
X007980Y005094D02*
X008014Y005060D01*
X007980Y005094D02*
X007980Y005780D01*
X008180Y005980D01*
X009430Y005980D01*
X009780Y006330D01*
X009780Y006930D01*
X010780Y006930D02*
X010780Y006330D01*
X010280Y005830D01*
X008380Y005830D01*
X008230Y005680D01*
X008230Y005100D01*
X008270Y005060D01*
X008527Y005060D02*
X008530Y005063D01*
X008530Y005530D01*
X008680Y005680D01*
X011130Y005680D01*
X011780Y006330D01*
X011780Y006930D01*
X012780Y006930D02*
X012780Y006330D01*
X011530Y005080D01*
X008803Y005080D01*
X008783Y005060D01*
X007502Y005060D02*
X007480Y005082D01*
X007580Y003330D02*
X012091Y003330D01*
X012180Y003241D01*
X011530Y002780D02*
X008802Y002780D01*
X008782Y002800D01*
X008530Y002796D02*
X008526Y002800D01*
X008530Y002796D02*
X008530Y002280D01*
X008680Y002130D01*
X011180Y002130D01*
X011780Y001530D01*
X011780Y000930D01*
X010780Y000930D02*
X010780Y001530D01*
X010330Y001980D01*
X008480Y001980D01*
X008280Y002180D01*
X008280Y002790D01*
X008270Y002800D01*
X008014Y002800D02*
X007980Y002766D01*
X007980Y002030D01*
X008180Y001830D01*
X009480Y001830D01*
X009780Y001530D01*
X009780Y000930D01*
X008780Y000930D02*
X008780Y001530D01*
X008630Y001680D01*
X007980Y001680D01*
X007730Y001930D01*
X007730Y002772D01*
X007758Y002800D01*
X007502Y002800D02*
X007480Y002778D01*
X007480Y003230D01*
X007580Y003330D01*
X007480Y002778D02*
X007480Y001830D01*
X007780Y001530D01*
X007780Y000930D01*
X006780Y000930D02*
X006780Y001380D01*
X007230Y001830D01*
X007230Y002784D01*
X007246Y002800D01*
X006990Y002800D02*
X006980Y002790D01*
X006980Y001930D01*
X006730Y001680D01*
X005930Y001680D01*
X005780Y001530D01*
X005780Y000930D01*
X004780Y000930D02*
X004780Y001530D01*
X005080Y001830D01*
X006530Y001830D01*
X006730Y002030D01*
X006730Y002796D01*
X006734Y002800D01*
X006480Y002798D02*
X006478Y002800D01*
X006480Y002798D02*
X006480Y002130D01*
X006330Y001980D01*
X004230Y001980D01*
X003780Y001530D01*
X003780Y000930D01*
X002780Y000930D02*
X002780Y001530D01*
X003380Y002130D01*
X006080Y002130D01*
X006230Y002280D01*
X006230Y002793D01*
X006223Y002800D01*
X005967Y002800D02*
X005947Y002780D01*
X003030Y002780D01*
X001780Y001530D01*
X001780Y000930D01*
X010886Y004574D02*
X010930Y004530D01*
X012091Y004530D01*
X012180Y004619D01*
X010936Y004530D02*
X010886Y004574D01*
X011530Y002780D02*
X012780Y001530D01*
X012780Y000930D01*
D16*
X000340Y000340D02*
X000340Y007540D01*
X001536Y007540D01*
X001424Y007428D01*
X001360Y007274D01*
X001360Y006586D01*
X001424Y006432D01*
X001427Y006429D01*
X001286Y006429D01*
X001265Y006426D01*
X001245Y006421D01*
X001226Y006413D01*
X001208Y006402D01*
X001191Y006390D01*
X001176Y006375D01*
X001163Y006358D01*
X001153Y006340D01*
X001145Y006321D01*
X001139Y006300D01*
X001137Y006280D01*
X001137Y002186D01*
X001139Y002165D01*
X001145Y002145D01*
X001153Y002126D01*
X001163Y002108D01*
X001176Y002091D01*
X001191Y002076D01*
X001208Y002063D01*
X001226Y002053D01*
X001245Y002045D01*
X001265Y002039D01*
X001286Y002037D01*
X001990Y002037D01*
X001570Y001617D01*
X001570Y001558D01*
X001542Y001546D01*
X001424Y001428D01*
X001360Y001274D01*
X001360Y000586D01*
X001424Y000432D01*
X001516Y000340D01*
X000340Y000340D01*
X000340Y000497D02*
X001397Y000497D01*
X001360Y000656D02*
X000340Y000656D01*
X000340Y000814D02*
X001360Y000814D01*
X001360Y000973D02*
X000340Y000973D01*
X000340Y001131D02*
X001360Y001131D01*
X001367Y001290D02*
X000340Y001290D01*
X000340Y001448D02*
X001444Y001448D01*
X001570Y001607D02*
X000340Y001607D01*
X000340Y001765D02*
X001718Y001765D01*
X001877Y001924D02*
X000340Y001924D01*
X000340Y002082D02*
X001185Y002082D01*
X001137Y002241D02*
X000340Y002241D01*
X000340Y002399D02*
X001137Y002399D01*
X001137Y002558D02*
X000340Y002558D01*
X000340Y002716D02*
X001137Y002716D01*
X001137Y002875D02*
X000340Y002875D01*
X000340Y003033D02*
X001137Y003033D01*
X001137Y003192D02*
X000340Y003192D01*
X000340Y003350D02*
X001137Y003350D01*
X001137Y003509D02*
X000340Y003509D01*
X000340Y003667D02*
X001137Y003667D01*
X001137Y003826D02*
X000340Y003826D01*
X000340Y003984D02*
X001137Y003984D01*
X001137Y004143D02*
X000340Y004143D01*
X000340Y004301D02*
X001137Y004301D01*
X001137Y004460D02*
X000340Y004460D01*
X000340Y004618D02*
X001137Y004618D01*
X001137Y004777D02*
X000340Y004777D01*
X000340Y004935D02*
X001137Y004935D01*
X001137Y005094D02*
X000340Y005094D01*
X000340Y005252D02*
X001137Y005252D01*
X001137Y005411D02*
X000340Y005411D01*
X000340Y005569D02*
X001137Y005569D01*
X001137Y005728D02*
X000340Y005728D01*
X000340Y005886D02*
X001137Y005886D01*
X001137Y006045D02*
X000340Y006045D01*
X000340Y006203D02*
X001137Y006203D01*
X001166Y006362D02*
X000340Y006362D01*
X000340Y006520D02*
X001388Y006520D01*
X001360Y006679D02*
X000340Y006679D01*
X000340Y006837D02*
X001360Y006837D01*
X001360Y006996D02*
X000340Y006996D01*
X000340Y007154D02*
X001360Y007154D01*
X001376Y007313D02*
X000340Y007313D01*
X000340Y007471D02*
X001467Y007471D01*
X002024Y007540D02*
X002536Y007540D01*
X002424Y007428D01*
X002360Y007274D01*
X002360Y006586D01*
X002424Y006432D01*
X002427Y006429D01*
X002133Y006429D01*
X002136Y006432D01*
X002200Y006586D01*
X002200Y007274D01*
X002136Y007428D01*
X002024Y007540D01*
X002093Y007471D02*
X002467Y007471D01*
X002376Y007313D02*
X002184Y007313D01*
X002200Y007154D02*
X002360Y007154D01*
X002360Y006996D02*
X002200Y006996D01*
X002200Y006837D02*
X002360Y006837D01*
X002360Y006679D02*
X002200Y006679D01*
X002172Y006520D02*
X002388Y006520D01*
X003055Y006352D02*
X003136Y006432D01*
X003200Y006586D01*
X003200Y007274D01*
X003136Y007428D01*
X003024Y007540D01*
X003536Y007540D01*
X003424Y007428D01*
X003360Y007274D01*
X003360Y006586D01*
X003424Y006432D01*
X003542Y006314D01*
X003570Y006302D01*
X003570Y006243D01*
X003923Y005890D01*
X003517Y005890D01*
X003055Y006352D01*
X003065Y006362D02*
X003495Y006362D01*
X003388Y006520D02*
X003172Y006520D01*
X003200Y006679D02*
X003360Y006679D01*
X003360Y006837D02*
X003200Y006837D01*
X003200Y006996D02*
X003360Y006996D01*
X003360Y007154D02*
X003200Y007154D01*
X003184Y007313D02*
X003376Y007313D01*
X003467Y007471D02*
X003093Y007471D01*
X004024Y007540D02*
X004536Y007540D01*
X004424Y007428D01*
X004360Y007274D01*
X004360Y006586D01*
X004424Y006432D01*
X004542Y006314D01*
X004570Y006302D01*
X004570Y006243D01*
X004773Y006040D01*
X004367Y006040D01*
X004055Y006352D01*
X004136Y006432D01*
X004200Y006586D01*
X004200Y007274D01*
X004136Y007428D01*
X004024Y007540D01*
X004093Y007471D02*
X004467Y007471D01*
X004376Y007313D02*
X004184Y007313D01*
X004200Y007154D02*
X004360Y007154D01*
X004360Y006996D02*
X004200Y006996D01*
X004200Y006837D02*
X004360Y006837D01*
X004360Y006679D02*
X004200Y006679D01*
X004172Y006520D02*
X004388Y006520D01*
X004495Y006362D02*
X004065Y006362D01*
X004204Y006203D02*
X004610Y006203D01*
X004769Y006045D02*
X004362Y006045D01*
X003769Y006045D02*
X003362Y006045D01*
X003204Y006203D02*
X003610Y006203D01*
X002927Y005886D02*
X002723Y005886D01*
X002723Y005728D02*
X003086Y005728D01*
X003220Y005593D02*
X003343Y005470D01*
X005727Y005470D01*
X005727Y005290D01*
X003117Y005290D01*
X002723Y005684D01*
X002723Y006090D01*
X003220Y005593D01*
X003244Y005569D02*
X002838Y005569D01*
X002996Y005411D02*
X005727Y005411D01*
X005727Y004870D02*
X005727Y004604D01*
X005820Y004510D01*
X007053Y004510D01*
X007120Y004443D01*
X007243Y004320D01*
X010126Y004320D01*
X010126Y004287D01*
X010220Y004193D01*
X010628Y004193D01*
X010680Y004245D01*
X010732Y004193D01*
X011140Y004193D01*
X011234Y004287D01*
X011234Y004320D01*
X011725Y004320D01*
X011725Y004257D01*
X011818Y004164D01*
X012542Y004164D01*
X012635Y004257D01*
X012635Y004981D01*
X012542Y005074D01*
X011821Y005074D01*
X012990Y006243D01*
X012990Y006302D01*
X013018Y006314D01*
X013136Y006432D01*
X013200Y006586D01*
X013200Y007274D01*
X013136Y007428D01*
X013024Y007540D01*
X014212Y007540D01*
X014212Y000340D01*
X013044Y000340D01*
X013136Y000432D01*
X013200Y000586D01*
X013200Y001274D01*
X013136Y001428D01*
X013018Y001546D01*
X012990Y001558D01*
X012990Y001617D01*
X011821Y002786D01*
X012542Y002786D01*
X012635Y002879D01*
X012635Y003603D01*
X012542Y003696D01*
X011818Y003696D01*
X011725Y003603D01*
X011725Y003540D01*
X007493Y003540D01*
X007370Y003417D01*
X007303Y003350D01*
X005820Y003350D01*
X005727Y003256D01*
X005727Y002990D01*
X002943Y002990D01*
X002820Y002867D01*
X002723Y002770D01*
X002723Y005090D01*
X002820Y004993D01*
X002943Y004870D01*
X005727Y004870D01*
X005727Y004777D02*
X002723Y004777D01*
X002723Y004935D02*
X002878Y004935D01*
X002723Y004618D02*
X005727Y004618D01*
X007104Y004460D02*
X002723Y004460D01*
X002723Y004301D02*
X010126Y004301D01*
X010126Y004740D02*
X009023Y004740D01*
X009023Y004870D01*
X011617Y004870D01*
X011725Y004978D01*
X011725Y004740D01*
X011234Y004740D01*
X011234Y004773D01*
X011140Y004867D01*
X010732Y004867D01*
X010680Y004815D01*
X010628Y004867D01*
X010220Y004867D01*
X010126Y004773D01*
X010126Y004740D01*
X010129Y004777D02*
X009023Y004777D01*
X009023Y005290D02*
X009023Y005470D01*
X011217Y005470D01*
X011340Y005593D01*
X011990Y006243D01*
X011990Y006302D01*
X012018Y006314D01*
X012136Y006432D01*
X012200Y006586D01*
X012200Y007274D01*
X012136Y007428D01*
X012024Y007540D01*
X012536Y007540D01*
X012424Y007428D01*
X012360Y007274D01*
X012360Y006586D01*
X012424Y006432D01*
X012505Y006352D01*
X011443Y005290D01*
X009023Y005290D01*
X009023Y005411D02*
X011564Y005411D01*
X011722Y005569D02*
X011316Y005569D01*
X011474Y005728D02*
X011881Y005728D01*
X012039Y005886D02*
X011633Y005886D01*
X011791Y006045D02*
X012198Y006045D01*
X012356Y006203D02*
X011950Y006203D01*
X012065Y006362D02*
X012495Y006362D01*
X012388Y006520D02*
X012172Y006520D01*
X012200Y006679D02*
X012360Y006679D01*
X012360Y006837D02*
X012200Y006837D01*
X012200Y006996D02*
X012360Y006996D01*
X012360Y007154D02*
X012200Y007154D01*
X012184Y007313D02*
X012376Y007313D01*
X012467Y007471D02*
X012093Y007471D01*
X011536Y007540D02*
X011424Y007428D01*
X011360Y007274D01*
X011360Y006586D01*
X011424Y006432D01*
X011505Y006352D01*
X011043Y005890D01*
X010637Y005890D01*
X010990Y006243D01*
X010990Y006302D01*
X011018Y006314D01*
X011136Y006432D01*
X011200Y006586D01*
X011200Y007274D01*
X011136Y007428D01*
X011024Y007540D01*
X011536Y007540D01*
X011467Y007471D02*
X011093Y007471D01*
X011184Y007313D02*
X011376Y007313D01*
X011360Y007154D02*
X011200Y007154D01*
X011200Y006996D02*
X011360Y006996D01*
X011360Y006837D02*
X011200Y006837D01*
X011200Y006679D02*
X011360Y006679D01*
X011388Y006520D02*
X011172Y006520D01*
X011065Y006362D02*
X011495Y006362D01*
X011356Y006203D02*
X010950Y006203D01*
X010791Y006045D02*
X011198Y006045D01*
X010505Y006352D02*
X010193Y006040D01*
X009787Y006040D01*
X009990Y006243D01*
X009990Y006302D01*
X010018Y006314D01*
X010136Y006432D01*
X010200Y006586D01*
X010200Y007274D01*
X010136Y007428D01*
X010024Y007540D01*
X010536Y007540D01*
X010424Y007428D01*
X010360Y007274D01*
X010360Y006586D01*
X010424Y006432D01*
X010505Y006352D01*
X010495Y006362D02*
X010065Y006362D01*
X010172Y006520D02*
X010388Y006520D01*
X010360Y006679D02*
X010200Y006679D01*
X010200Y006837D02*
X010360Y006837D01*
X010360Y006996D02*
X010200Y006996D01*
X010200Y007154D02*
X010360Y007154D01*
X010376Y007313D02*
X010184Y007313D01*
X010093Y007471D02*
X010467Y007471D01*
X009536Y007540D02*
X009424Y007428D01*
X009360Y007274D01*
X009360Y006586D01*
X009424Y006432D01*
X009505Y006352D01*
X009343Y006190D01*
X008937Y006190D01*
X008990Y006243D01*
X008990Y006302D01*
X009018Y006314D01*
X009136Y006432D01*
X009200Y006586D01*
X009200Y007274D01*
X009136Y007428D01*
X009024Y007540D01*
X009536Y007540D01*
X009467Y007471D02*
X009093Y007471D01*
X009184Y007313D02*
X009376Y007313D01*
X009360Y007154D02*
X009200Y007154D01*
X009200Y006996D02*
X009360Y006996D01*
X009360Y006837D02*
X009200Y006837D01*
X009200Y006679D02*
X009360Y006679D01*
X009388Y006520D02*
X009172Y006520D01*
X009065Y006362D02*
X009495Y006362D01*
X009356Y006203D02*
X008950Y006203D01*
X008505Y006352D02*
X008493Y006340D01*
X008044Y006340D01*
X008136Y006432D01*
X008200Y006586D01*
X008200Y007274D01*
X008136Y007428D01*
X008024Y007540D01*
X008536Y007540D01*
X008424Y007428D01*
X008360Y007274D01*
X008360Y006586D01*
X008424Y006432D01*
X008505Y006352D01*
X008495Y006362D02*
X008065Y006362D01*
X008172Y006520D02*
X008388Y006520D01*
X008360Y006679D02*
X008200Y006679D01*
X008200Y006837D02*
X008360Y006837D01*
X008360Y006996D02*
X008200Y006996D01*
X008200Y007154D02*
X008360Y007154D01*
X008376Y007313D02*
X008184Y007313D01*
X008093Y007471D02*
X008467Y007471D01*
X007536Y007540D02*
X007424Y007428D01*
X007360Y007274D01*
X007360Y006586D01*
X007424Y006432D01*
X007542Y006314D01*
X007560Y006307D01*
X007393Y006140D01*
X007355Y006102D01*
X007317Y006140D01*
X007080Y006377D01*
X007136Y006432D01*
X007200Y006586D01*
X007200Y007274D01*
X007136Y007428D01*
X007024Y007540D01*
X007536Y007540D01*
X007467Y007471D02*
X007093Y007471D01*
X007184Y007313D02*
X007376Y007313D01*
X007360Y007154D02*
X007200Y007154D01*
X007200Y006996D02*
X007360Y006996D01*
X007360Y006837D02*
X007200Y006837D01*
X007200Y006679D02*
X007360Y006679D01*
X007388Y006520D02*
X007172Y006520D01*
X007095Y006362D02*
X007495Y006362D01*
X007456Y006203D02*
X007254Y006203D01*
X006516Y006340D02*
X006067Y006340D01*
X006055Y006352D01*
X006136Y006432D01*
X006200Y006586D01*
X006200Y007274D01*
X006136Y007428D01*
X006024Y007540D01*
X006536Y007540D01*
X006424Y007428D01*
X006360Y007274D01*
X006360Y006586D01*
X006424Y006432D01*
X006516Y006340D01*
X006495Y006362D02*
X006065Y006362D01*
X006172Y006520D02*
X006388Y006520D01*
X006360Y006679D02*
X006200Y006679D01*
X006200Y006837D02*
X006360Y006837D01*
X006360Y006996D02*
X006200Y006996D01*
X006200Y007154D02*
X006360Y007154D01*
X006376Y007313D02*
X006184Y007313D01*
X006093Y007471D02*
X006467Y007471D01*
X005536Y007540D02*
X005424Y007428D01*
X005360Y007274D01*
X005360Y006586D01*
X005424Y006432D01*
X005542Y006314D01*
X005570Y006302D01*
X005570Y006243D01*
X005623Y006190D01*
X005217Y006190D01*
X005055Y006352D01*
X005136Y006432D01*
X005200Y006586D01*
X005200Y007274D01*
X005136Y007428D01*
X005024Y007540D01*
X005536Y007540D01*
X005467Y007471D02*
X005093Y007471D01*
X005184Y007313D02*
X005376Y007313D01*
X005360Y007154D02*
X005200Y007154D01*
X005200Y006996D02*
X005360Y006996D01*
X005360Y006837D02*
X005200Y006837D01*
X005200Y006679D02*
X005360Y006679D01*
X005388Y006520D02*
X005172Y006520D01*
X005065Y006362D02*
X005495Y006362D01*
X005610Y006203D02*
X005204Y006203D01*
X002769Y006045D02*
X002723Y006045D01*
X002723Y004143D02*
X014212Y004143D01*
X014212Y004301D02*
X012635Y004301D01*
X012635Y004460D02*
X014212Y004460D01*
X014212Y004618D02*
X012635Y004618D01*
X012635Y004777D02*
X014212Y004777D01*
X014212Y004935D02*
X012635Y004935D01*
X011999Y005252D02*
X014212Y005252D01*
X014212Y005094D02*
X011840Y005094D01*
X011725Y004935D02*
X011682Y004935D01*
X011725Y004777D02*
X011231Y004777D01*
X011234Y004301D02*
X011725Y004301D01*
X011789Y003667D02*
X002723Y003667D01*
X002723Y003509D02*
X007462Y003509D01*
X007303Y003350D02*
X002723Y003350D01*
X002723Y003192D02*
X005727Y003192D01*
X005727Y003033D02*
X002723Y003033D01*
X002723Y002875D02*
X002828Y002875D01*
X003117Y002570D02*
X005727Y002570D01*
X005727Y002344D01*
X005730Y002340D01*
X003293Y002340D01*
X003170Y002217D01*
X002570Y001617D01*
X002570Y001558D01*
X002542Y001546D01*
X002424Y001428D01*
X002360Y001274D01*
X002360Y000586D01*
X002424Y000432D01*
X002516Y000340D01*
X002044Y000340D01*
X002136Y000432D01*
X002200Y000586D01*
X002200Y001274D01*
X002136Y001428D01*
X002055Y001508D01*
X002585Y002038D01*
X002595Y002039D01*
X002615Y002045D01*
X002634Y002053D01*
X002652Y002063D01*
X002669Y002076D01*
X002684Y002091D01*
X002697Y002108D01*
X002707Y002126D01*
X002715Y002145D01*
X002721Y002165D01*
X002722Y002175D01*
X003117Y002570D01*
X003104Y002558D02*
X005727Y002558D01*
X005727Y002399D02*
X002946Y002399D01*
X002787Y002241D02*
X003194Y002241D01*
X003035Y002082D02*
X002675Y002082D01*
X002877Y001924D02*
X002470Y001924D01*
X002312Y001765D02*
X002718Y001765D01*
X002570Y001607D02*
X002153Y001607D01*
X002116Y001448D02*
X002444Y001448D01*
X002367Y001290D02*
X002193Y001290D01*
X002200Y001131D02*
X002360Y001131D01*
X002360Y000973D02*
X002200Y000973D01*
X002200Y000814D02*
X002360Y000814D01*
X002360Y000656D02*
X002200Y000656D01*
X002163Y000497D02*
X002397Y000497D01*
X003044Y000340D02*
X003136Y000432D01*
X003200Y000586D01*
X003200Y001274D01*
X003136Y001428D01*
X003055Y001508D01*
X003467Y001920D01*
X003873Y001920D01*
X003570Y001617D01*
X003570Y001558D01*
X003542Y001546D01*
X003424Y001428D01*
X003360Y001274D01*
X003360Y000586D01*
X003424Y000432D01*
X003516Y000340D01*
X003044Y000340D01*
X003163Y000497D02*
X003397Y000497D01*
X003360Y000656D02*
X003200Y000656D01*
X003200Y000814D02*
X003360Y000814D01*
X003360Y000973D02*
X003200Y000973D01*
X003200Y001131D02*
X003360Y001131D01*
X003367Y001290D02*
X003193Y001290D01*
X003116Y001448D02*
X003444Y001448D01*
X003570Y001607D02*
X003153Y001607D01*
X003312Y001765D02*
X003718Y001765D01*
X004055Y001508D02*
X004317Y001770D01*
X004723Y001770D01*
X004570Y001617D01*
X004570Y001558D01*
X004542Y001546D01*
X004424Y001428D01*
X004360Y001274D01*
X004360Y000586D01*
X004424Y000432D01*
X004516Y000340D01*
X004044Y000340D01*
X004136Y000432D01*
X004200Y000586D01*
X004200Y001274D01*
X004136Y001428D01*
X004055Y001508D01*
X004116Y001448D02*
X004444Y001448D01*
X004367Y001290D02*
X004193Y001290D01*
X004200Y001131D02*
X004360Y001131D01*
X004360Y000973D02*
X004200Y000973D01*
X004200Y000814D02*
X004360Y000814D01*
X004360Y000656D02*
X004200Y000656D01*
X004163Y000497D02*
X004397Y000497D01*
X005044Y000340D02*
X005136Y000432D01*
X005200Y000586D01*
X005200Y001274D01*
X005136Y001428D01*
X005055Y001508D01*
X005167Y001620D01*
X005573Y001620D01*
X005570Y001617D01*
X005570Y001558D01*
X005542Y001546D01*
X005424Y001428D01*
X005360Y001274D01*
X005360Y000586D01*
X005424Y000432D01*
X005516Y000340D01*
X005044Y000340D01*
X005163Y000497D02*
X005397Y000497D01*
X005360Y000656D02*
X005200Y000656D01*
X005200Y000814D02*
X005360Y000814D01*
X005360Y000973D02*
X005200Y000973D01*
X005200Y001131D02*
X005360Y001131D01*
X005367Y001290D02*
X005193Y001290D01*
X005116Y001448D02*
X005444Y001448D01*
X005570Y001607D02*
X005153Y001607D01*
X004718Y001765D02*
X004312Y001765D01*
X004153Y001607D02*
X004570Y001607D01*
X006094Y001470D02*
X006466Y001470D01*
X006424Y001428D01*
X006360Y001274D01*
X006360Y000586D01*
X006424Y000432D01*
X006516Y000340D01*
X006044Y000340D01*
X006136Y000432D01*
X006200Y000586D01*
X006200Y001274D01*
X006136Y001428D01*
X006094Y001470D01*
X006116Y001448D02*
X006444Y001448D01*
X006367Y001290D02*
X006193Y001290D01*
X006200Y001131D02*
X006360Y001131D01*
X006360Y000973D02*
X006200Y000973D01*
X006200Y000814D02*
X006360Y000814D01*
X006360Y000656D02*
X006200Y000656D01*
X006163Y000497D02*
X006397Y000497D01*
X007044Y000340D02*
X007136Y000432D01*
X007200Y000586D01*
X007200Y001274D01*
X007136Y001428D01*
X007130Y001433D01*
X007317Y001620D01*
X007355Y001658D01*
X007393Y001620D01*
X007505Y001508D01*
X007424Y001428D01*
X007360Y001274D01*
X007360Y000586D01*
X007424Y000432D01*
X007516Y000340D01*
X007044Y000340D01*
X007163Y000497D02*
X007397Y000497D01*
X007360Y000656D02*
X007200Y000656D01*
X007200Y000814D02*
X007360Y000814D01*
X007360Y000973D02*
X007200Y000973D01*
X007200Y001131D02*
X007360Y001131D01*
X007367Y001290D02*
X007193Y001290D01*
X007145Y001448D02*
X007444Y001448D01*
X007407Y001607D02*
X007303Y001607D01*
X008094Y001470D02*
X008466Y001470D01*
X008424Y001428D01*
X008360Y001274D01*
X008360Y000586D01*
X008424Y000432D01*
X008516Y000340D01*
X008044Y000340D01*
X008136Y000432D01*
X008200Y000586D01*
X008200Y001274D01*
X008136Y001428D01*
X008094Y001470D01*
X008116Y001448D02*
X008444Y001448D01*
X008367Y001290D02*
X008193Y001290D01*
X008200Y001131D02*
X008360Y001131D01*
X008360Y000973D02*
X008200Y000973D01*
X008200Y000814D02*
X008360Y000814D01*
X008360Y000656D02*
X008200Y000656D01*
X008163Y000497D02*
X008397Y000497D01*
X009044Y000340D02*
X009136Y000432D01*
X009200Y000586D01*
X009200Y001274D01*
X009136Y001428D01*
X009018Y001546D01*
X008990Y001558D01*
X008990Y001617D01*
X008987Y001620D01*
X009393Y001620D01*
X009505Y001508D01*
X009424Y001428D01*
X009360Y001274D01*
X009360Y000586D01*
X009424Y000432D01*
X009516Y000340D01*
X009044Y000340D01*
X009163Y000497D02*
X009397Y000497D01*
X009360Y000656D02*
X009200Y000656D01*
X009200Y000814D02*
X009360Y000814D01*
X009360Y000973D02*
X009200Y000973D01*
X009200Y001131D02*
X009360Y001131D01*
X009367Y001290D02*
X009193Y001290D01*
X009116Y001448D02*
X009444Y001448D01*
X009407Y001607D02*
X008990Y001607D01*
X009837Y001770D02*
X010243Y001770D01*
X010505Y001508D01*
X010424Y001428D01*
X010360Y001274D01*
X010360Y000586D01*
X010424Y000432D01*
X010516Y000340D01*
X010044Y000340D01*
X010136Y000432D01*
X010200Y000586D01*
X010200Y001274D01*
X010136Y001428D01*
X010018Y001546D01*
X009990Y001558D01*
X009990Y001617D01*
X009837Y001770D01*
X009842Y001765D02*
X010248Y001765D01*
X010407Y001607D02*
X009990Y001607D01*
X010116Y001448D02*
X010444Y001448D01*
X010367Y001290D02*
X010193Y001290D01*
X010200Y001131D02*
X010360Y001131D01*
X010360Y000973D02*
X010200Y000973D01*
X010200Y000814D02*
X010360Y000814D01*
X010360Y000656D02*
X010200Y000656D01*
X010163Y000497D02*
X010397Y000497D01*
X011044Y000340D02*
X011136Y000432D01*
X011200Y000586D01*
X011200Y001274D01*
X011136Y001428D01*
X011018Y001546D01*
X010990Y001558D01*
X010990Y001617D01*
X010687Y001920D01*
X011093Y001920D01*
X011505Y001508D01*
X011424Y001428D01*
X011360Y001274D01*
X011360Y000586D01*
X011424Y000432D01*
X011516Y000340D01*
X011044Y000340D01*
X011163Y000497D02*
X011397Y000497D01*
X011360Y000656D02*
X011200Y000656D01*
X011200Y000814D02*
X011360Y000814D01*
X011360Y000973D02*
X011200Y000973D01*
X011200Y001131D02*
X011360Y001131D01*
X011367Y001290D02*
X011193Y001290D01*
X011116Y001448D02*
X011444Y001448D01*
X011407Y001607D02*
X010990Y001607D01*
X010842Y001765D02*
X011248Y001765D01*
X011683Y001924D02*
X012090Y001924D01*
X011931Y002082D02*
X011525Y002082D01*
X011390Y002217D02*
X011267Y002340D01*
X009018Y002340D01*
X009022Y002344D01*
X009022Y002570D01*
X011443Y002570D01*
X012505Y001508D01*
X012424Y001428D01*
X012360Y001274D01*
X012360Y000586D01*
X012424Y000432D01*
X012516Y000340D01*
X012044Y000340D01*
X012136Y000432D01*
X012200Y000586D01*
X012200Y001274D01*
X012136Y001428D01*
X012018Y001546D01*
X011990Y001558D01*
X011990Y001617D01*
X011390Y002217D01*
X011366Y002241D02*
X011773Y002241D01*
X011614Y002399D02*
X009022Y002399D01*
X009022Y002558D02*
X011456Y002558D01*
X011891Y002716D02*
X014212Y002716D01*
X014212Y002558D02*
X012049Y002558D01*
X012208Y002399D02*
X014212Y002399D01*
X014212Y002241D02*
X012366Y002241D01*
X012525Y002082D02*
X014212Y002082D01*
X014212Y001924D02*
X012683Y001924D01*
X012842Y001765D02*
X014212Y001765D01*
X014212Y001607D02*
X012990Y001607D01*
X013116Y001448D02*
X014212Y001448D01*
X014212Y001290D02*
X013193Y001290D01*
X013200Y001131D02*
X014212Y001131D01*
X014212Y000973D02*
X013200Y000973D01*
X013200Y000814D02*
X014212Y000814D01*
X014212Y000656D02*
X013200Y000656D01*
X013163Y000497D02*
X014212Y000497D01*
X012397Y000497D02*
X012163Y000497D01*
X012200Y000656D02*
X012360Y000656D01*
X012360Y000814D02*
X012200Y000814D01*
X012200Y000973D02*
X012360Y000973D01*
X012360Y001131D02*
X012200Y001131D01*
X012193Y001290D02*
X012367Y001290D01*
X012444Y001448D02*
X012116Y001448D01*
X011990Y001607D02*
X012407Y001607D01*
X012248Y001765D02*
X011842Y001765D01*
X011725Y002882D02*
X011617Y002990D01*
X009022Y002990D01*
X009022Y003120D01*
X011725Y003120D01*
X011725Y002882D01*
X011725Y003033D02*
X009022Y003033D01*
X012571Y003667D02*
X014212Y003667D01*
X014212Y003509D02*
X012635Y003509D01*
X012635Y003350D02*
X014212Y003350D01*
X014212Y003192D02*
X012635Y003192D01*
X012635Y003033D02*
X014212Y003033D01*
X014212Y002875D02*
X012630Y002875D01*
X014212Y003826D02*
X002723Y003826D01*
X002723Y003984D02*
X014212Y003984D01*
X014212Y005411D02*
X012157Y005411D01*
X012316Y005569D02*
X014212Y005569D01*
X014212Y005728D02*
X012474Y005728D01*
X012633Y005886D02*
X014212Y005886D01*
X014212Y006045D02*
X012791Y006045D01*
X012950Y006203D02*
X014212Y006203D01*
X014212Y006362D02*
X013065Y006362D01*
X013172Y006520D02*
X014212Y006520D01*
X014212Y006679D02*
X013200Y006679D01*
X013200Y006837D02*
X014212Y006837D01*
X014212Y006996D02*
X013200Y006996D01*
X013200Y007154D02*
X014212Y007154D01*
X014212Y007313D02*
X013184Y007313D01*
X013093Y007471D02*
X014212Y007471D01*
X010356Y006203D02*
X009950Y006203D01*
X009791Y006045D02*
X010198Y006045D01*
M02*
